<?xml version="1.0" encoding="utf-8"?><svg xmlns="http://www.w3.org/2000/svg" xmlns:xlink="http://www.w3.org/1999/xlink"><symbol id="airstrip" viewBox="0 0 11 11" xml:space="preserve" xmlns="http://www.w3.org/2000/svg"><style>.aast0{fill:#e9550d}</style><path id="aapath5" class="aast0" d="M5 .5H3.5C3 .5 3 0 3.5 0h4c.5 0 .5.5 0 .5H6c.3.4.5 1 .5 1.5v1H11v1.5l-4.5 2L6 10l1.5.5v.5h-4v-.5L5 10l-.5-3.5-4.5-2V3h4.5V2c0-.5.2-1.1.5-1.5z"/></symbol><symbol id="airstrip-12" viewBox="0 0 11 11" xml:space="preserve" xmlns="http://www.w3.org/2000/svg"><style>.abst0{fill:#e9550d}</style><path id="abpath5" class="abst0" d="M5 .5H3.5C3 .5 3 0 3.5 0h4c.5 0 .5.5 0 .5H6c.3.4.5 1 .5 1.5v1H11v1.5l-4.5 2L6 10l1.5.5v.5h-4v-.5L5 10l-.5-3.5-4.5-2V3h4.5V2c0-.5.2-1.1.5-1.5z"/></symbol><symbol id="animal" viewBox="0 0 11 6.5" xml:space="preserve" xmlns="http://www.w3.org/2000/svg"><style>.acst0{fill:#6d626d}</style><path class="acst0" d="M0 1.9S2.1 0 3.2 0s5.1 1.2 6.1 2.2c.8 1 1.4 2.1 1.7 3.3 0 .2.3.8-1.1.3S8.3 4.5 7.6 4.5s-.1 1.3-.1 1.3.3.8.5.7h-.7L6.4 5l.2 1.2h-.3l-.5-1.7c-.9-.3-1.7-.5-2.6-.6C2.5 4.1 2 5 2 5.2s0 1.1.4 1.2h-.6S1.2 5 1.1 4.7v-.1s-.2 0-.4.7-.2 1-.2 1H.2C.2 5.7.1 5 .1 4.4c0-.2.5-.7.5-1s0-1.1-.6-1.5z"/></symbol><symbol id="animal-12" viewBox="0 0 11 6.5" xml:space="preserve" xmlns="http://www.w3.org/2000/svg"><style>.adst0{fill:#6d626d}</style><path class="adst0" d="M0 1.9S2.1 0 3.2 0s5.1 1.2 6.1 2.2c.8 1 1.4 2.1 1.7 3.3 0 .2.3.8-1.1.3S8.3 4.5 7.6 4.5s-.1 1.3-.1 1.3.3.8.5.7h-.7L6.4 5l.2 1.2h-.3l-.5-1.7c-.9-.3-1.7-.5-2.6-.6C2.5 4.1 2 5 2 5.2s0 1.1.4 1.2h-.6S1.2 5 1.1 4.7v-.1s-.2 0-.4.7-.2 1-.2 1H.2C.2 5.7.1 5 .1 4.4c0-.2.5-.7.5-1s0-1.1-.6-1.5z"/></symbol><symbol viewBox="0 0 100 100" id="boundary" xmlns="http://www.w3.org/2000/svg"><path d="M103.04 3.528l-19.997 7.87c-12.345 4.86-24.715 9.73-36.656 16.307-7.104 3.913-14.037 8.419-20.964 12.922l-11.21 7.286a4.99 4.99 0 00-1.688 1.539c-2.157 3.51-2.518 9.654-3.109 14.03l-5.574 41.26" fill="none" stroke="#cc6aff" stroke-width="3" stroke-dasharray="18 9.5143"/></symbol><symbol viewBox="0 0 100 100" id="boundary-12" xmlns="http://www.w3.org/2000/svg"><path d="M103.04 3.528l-19.997 7.87c-12.345 4.86-24.715 9.73-36.656 16.307-7.104 3.913-14.037 8.419-20.964 12.922l-11.21 7.286a4.99 4.99 0 00-1.688 1.539c-2.157 3.51-2.518 9.654-3.109 14.03l-5.574 41.26" fill="none" stroke="#cc6aff" stroke-width="3" stroke-dasharray="18 9.5143"/></symbol><symbol id="building" viewBox="0 0 9 9" xml:space="preserve" xmlns="http://www.w3.org/2000/svg"><style>.agst0{fill:#4b7767}</style><path class="agst0" d="M1 4v5h1V5h2v4h4V4H1zm6 4H5V5h2v3zM0 3h9L7 0H2z"/></symbol><symbol id="building-12" viewBox="0 0 9 9" xml:space="preserve" xmlns="http://www.w3.org/2000/svg"><style>.ahst0{fill:#4b7767}</style><path class="ahst0" d="M1 4v5h1V5h2v4h4V4H1zm6 4H5V5h2v3zM0 3h9L7 0H2z"/></symbol><symbol id="camp" viewBox="0 0 10 6.4" xml:space="preserve" xmlns="http://www.w3.org/2000/svg"><style>.aist0,.aist1{fill:none;stroke:#2069d3;stroke-linecap:round;stroke-linejoin:round}.aist1{fill:#2069d3}</style><path class="aist0" d="M.5 5.9L5 .5l4.5 5.4"/><path class="aist1" d="M3 5.9l2-2.4 2 2.4z"/></symbol><symbol id="camp-12" viewBox="0 0 10 6.4" xml:space="preserve" xmlns="http://www.w3.org/2000/svg"><style>.ajst0,.ajst1{fill:none;stroke:#2069d3;stroke-linecap:round;stroke-linejoin:round}.ajst1{fill:#2069d3}</style><path class="ajst0" d="M.5 5.9L5 .5l4.5 5.4"/><path class="ajst1" d="M3 5.9l2-2.4 2 2.4z"/></symbol><symbol id="cave" viewBox="0 0 11 8" xml:space="preserve" xmlns="http://www.w3.org/2000/svg"><style>.akst0{fill:#161a38}.akst1{fill:#353644}</style><path class="akst0" d="M5.5 2.5c-1.7 0-3 2.4-3 4.4V8h6V6.9c0-2-1.3-4.4-3-4.4z"/><path class="akst1" d="M5.5 0C2.5 0 0 3.5 0 6.5V8h1.5V6.9c0-2.5 1.8-5.4 4-5.4s4 2.9 4 5.4V8H11V6.5C11 3.5 8.5 0 5.5 0z"/></symbol><symbol id="cave-12" viewBox="0 0 11 8" xml:space="preserve" xmlns="http://www.w3.org/2000/svg"><style>.alst0{fill:#161a38}.alst1{fill:#353644}</style><path class="alst0" d="M5.5 2.5c-1.7 0-3 2.4-3 4.4V8h6V6.9c0-2-1.3-4.4-3-4.4z"/><path class="alst1" d="M5.5 0C2.5 0 0 3.5 0 6.5V8h1.5V6.9c0-2.5 1.8-5.4 4-5.4s4 2.9 4 5.4V8H11V6.5C11 3.5 8.5 0 5.5 0z"/></symbol><symbol id="clay" viewBox="0 0 6.4 10" xml:space="preserve" xmlns="http://www.w3.org/2000/svg"><style>.amst0{fill:#d88541;stroke:#8e5929;stroke-linecap:round;stroke-linejoin:round}</style><path class="amst0" d="M5 .5c-.1.8-.4 1.6-.8 2.2-.3.4-.3.9.1 1.2.9.7 1.5 1.8 1.6 2.9.1 1.4-.8 2.6-2.1 2.7h-.6c-1.3.2-2.5-.7-2.7-2v-.6c.1-1.2.7-2.2 1.6-2.9.4-.3.5-.9.2-1.2-.5-.7-.8-1.5-.9-2.3H5z"/></symbol><symbol id="clay-12" viewBox="0 0 6.4 10" xml:space="preserve" xmlns="http://www.w3.org/2000/svg"><style>.anst0{fill:#d88541;stroke:#8e5929;stroke-linecap:round;stroke-linejoin:round}</style><path class="anst0" d="M5 .5c-.1.8-.4 1.6-.8 2.2-.3.4-.3.9.1 1.2.9.7 1.5 1.8 1.6 2.9.1 1.4-.8 2.6-2.1 2.7h-.6c-1.3.2-2.5-.7-2.7-2v-.6c.1-1.2.7-2.2 1.6-2.9.4-.3.5-.9.2-1.2-.5-.7-.8-1.5-.9-2.3H5z"/></symbol><symbol id="community" viewBox="0 0 9 7" xml:space="preserve" xmlns="http://www.w3.org/2000/svg"><style>.aost0{fill:#664323}</style><path class="aost0" d="M0 2v3h4V2L2 0zM7 2L5 4v3h4V4z"/></symbol><symbol id="community-12" viewBox="0 0 9 7" xml:space="preserve" xmlns="http://www.w3.org/2000/svg"><style>.apst0{fill:#664323}</style><path class="apst0" d="M0 2v3h4V2L2 0zM7 2L5 4v3h4V4z"/></symbol><symbol id="estrella" viewBox="0 0 24 24" xml:space="preserve" xmlns="http://www.w3.org/2000/svg"><style>.aqst0{fill:#ee79a5}</style><path class="aqst0" d="M19.7 21.6l-7.3-5.8L6 23l2.7-9.4L0 8.4l9.7 1L11.3.3 14 9l9.8-1.8-8.1 5.8z"/><path class="aqst0" d="M13.4 23.5l-3.3-8.2-8.6 1.9 6.9-5.8-4-8.7 7.2 5.8L19 2.3l-3.7 8.4 7.3 5-8.2-.8z"/></symbol><symbol id="estrella-12" viewBox="0 0 24 24" xml:space="preserve" xmlns="http://www.w3.org/2000/svg"><style>.arst0{fill:#ee79a5}</style><path class="arst0" d="M19.7 21.6l-7.3-5.8L6 23l2.7-9.4L0 8.4l9.7 1L11.3.3 14 9l9.8-1.8-8.1 5.8z"/><path class="arst0" d="M13.4 23.5l-3.3-8.2-8.6 1.9 6.9-5.8-4-8.7 7.2 5.8L19 2.3l-3.7 8.4 7.3 5-8.2-.8z"/></symbol><symbol id="fishing" viewBox="0 0 9 4.7" xml:space="preserve" xmlns="http://www.w3.org/2000/svg"><style>.asst0{fill:#161938}.asst1{fill:#508393}</style><path class="asst0" d="M2.2 3.1h-.5c-.4 0-.7-.3-.7-.7 0-.4.3-.7.7-.7h.5c.4 0 .8.3.8.7 0 .4-.4.7-.8.7z"/><path class="asst1" d="M6.4 3.7c0-.3 0-.6.1-.8.2-.4 2 .8 2 .8.5.2.5-3.7 0-3.4 0 0-1.9 1.3-2 .8s0-.9-.4-1C6.1 0 6 0 5.8 0 3.6 0 0 .8 0 2.9 0 4 2.8 4.7 4.1 4.7c1.7 0 2.3-.5 2.3-1zm-4.6-.8c-.3 0-.5-.2-.5-.5v-.1c0-.3.2-.5.5-.6h.1c.3 0 .5.2.5.5v.1c-.1.4-.3.6-.6.6z"/></symbol><symbol id="fishing-12" viewBox="0 0 9 4.7" xml:space="preserve" xmlns="http://www.w3.org/2000/svg"><style>.atst0{fill:#161938}.atst1{fill:#508393}</style><path class="atst0" d="M2.2 3.1h-.5c-.4 0-.7-.3-.7-.7 0-.4.3-.7.7-.7h.5c.4 0 .8.3.8.7 0 .4-.4.7-.8.7z"/><path class="atst1" d="M6.4 3.7c0-.3 0-.6.1-.8.2-.4 2 .8 2 .8.5.2.5-3.7 0-3.4 0 0-1.9 1.3-2 .8s0-.9-.4-1C6.1 0 6 0 5.8 0 3.6 0 0 .8 0 2.9 0 4 2.8 4.7 4.1 4.7c1.7 0 2.3-.5 2.3-1zm-4.6-.8c-.3 0-.5-.2-.5-.5v-.1c0-.3.2-.5.5-.6h.1c.3 0 .5.2.5.5v.1c-.1.4-.3.6-.6.6z"/></symbol><symbol id="gathering" viewBox="0 0 9.4 11" xml:space="preserve" xmlns="http://www.w3.org/2000/svg"><style>.aust0{fill:#8e5c25}</style><path class="aust0" d="M2.3 3.4c-.1.2-.1.5 0 .7l.9 2.1-1.3 3.9c-.1.3 0 .7.4.8 0 .1.1.1.2.1.3 0 .5-.1.6-.5l1.4-4 .1.3v3.5c0 .4.3.7.7.7.4 0 .7-.3.7-.7V7c0-.2 0-.3-.1-.5l-.8-1.9C4.9 4 4.7 3.5 4.4 3c-.2-.2-.4-.4-.6-.5-.4-.2-.6.1-.9.3s-.7.3-.9.6c-.1.3-.2.6-.3 1l-.1.8c-.1.2-.1.5-.1.8 0 .1 0 .3.1.4.1.1.3.1.5.1.1-.2.3-.3.3-.5.2-.3.2-.6.3-.9M1.5 0C.7 0 0 .7 0 1.5S.7 3 1.5 3 3 2.3 3 1.5 2.3 0 1.5 0zM8.3 5c-.6.3-1.3.4-1.9.3-.1 0-.1 0-.2-.1-.1 0-.1-.1-.1-.2-.2-.9-.6-1.7-1.1-2.5-.2-.2-.4-.4-.5-.7-.2-.4.5-.8.8-1l.6-.3.6-.3c.4-.2.9-.2 1.3 0s.6.5.8.8l.7 1.6c.3.7.2 1.6-.4 2.1-.2.1-.4.3-.6.3z"/></symbol><symbol id="gathering-12" viewBox="0 0 9.4 11" xml:space="preserve" xmlns="http://www.w3.org/2000/svg"><style>.avst0{fill:#8e5c25}</style><path class="avst0" d="M2.3 3.4c-.1.2-.1.5 0 .7l.9 2.1-1.3 3.9c-.1.3 0 .7.4.8 0 .1.1.1.2.1.3 0 .5-.1.6-.5l1.4-4 .1.3v3.5c0 .4.3.7.7.7.4 0 .7-.3.7-.7V7c0-.2 0-.3-.1-.5l-.8-1.9C4.9 4 4.7 3.5 4.4 3c-.2-.2-.4-.4-.6-.5-.4-.2-.6.1-.9.3s-.7.3-.9.6c-.1.3-.2.6-.3 1l-.1.8c-.1.2-.1.5-.1.8 0 .1 0 .3.1.4.1.1.3.1.5.1.1-.2.3-.3.3-.5.2-.3.2-.6.3-.9M1.5 0C.7 0 0 .7 0 1.5S.7 3 1.5 3 3 2.3 3 1.5 2.3 0 1.5 0zM8.3 5c-.6.3-1.3.4-1.9.3-.1 0-.1 0-.2-.1-.1 0-.1-.1-.1-.2-.2-.9-.6-1.7-1.1-2.5-.2-.2-.4-.4-.5-.7-.2-.4.5-.8.8-1l.6-.3.6-.3c.4-.2.9-.2 1.3 0s.6.5.8.8l.7 1.6c.3.7.2 1.6-.4 2.1-.2.1-.4.3-.6.3z"/></symbol><symbol id="hills" viewBox="0 0 11 6" xml:space="preserve" xmlns="http://www.w3.org/2000/svg"><style>.awst0{fill:#033517}</style><path class="awst0" d="M0 6h11c-.1 0-.4-.6-.5-.7-.4-.5-.7-1-1.1-1.6C9 3 8.5 2.3 8 1.6c0-.1-.1-.3-.2-.4-.2 0-.4.2-.5.3-.3.3-.6.7-.9 1-.3.3-.6.6-.9 1-.4-.6-.8-1.2-1.1-1.8-.3-.4-.5-.9-.8-1.2-.4-.5-.7.2-.8.5-.2.3-.4.7-.6 1C1.5 3.3.7 4.7 0 6z"/></symbol><symbol id="hills-12" viewBox="0 0 11 6" xml:space="preserve" xmlns="http://www.w3.org/2000/svg"><style>.axst0{fill:#033517}</style><path class="axst0" d="M0 6h11c-.1 0-.4-.6-.5-.7-.4-.5-.7-1-1.1-1.6C9 3 8.5 2.3 8 1.6c0-.1-.1-.3-.2-.4-.2 0-.4.2-.5.3-.3.3-.6.7-.9 1-.3.3-.6.6-.9 1-.4-.6-.8-1.2-1.1-1.8-.3-.4-.5-.9-.8-1.2-.4-.5-.7.2-.8.5-.2.3-.4.7-.6 1C1.5 3.3.7 4.7 0 6z"/></symbol><symbol id="house" viewBox="0 0 9 7.4" xml:space="preserve" xmlns="http://www.w3.org/2000/svg"><style>.ayst0{fill:#685537}</style><path class="ayst0" d="M0 3.4L4.5 0 9 3.4zM1 4.4v3h2v-2h3v2h2v-3z"/></symbol><symbol id="house-12" viewBox="0 0 9 7.4" xml:space="preserve" xmlns="http://www.w3.org/2000/svg"><style>.azst0{fill:#685537}</style><path class="azst0" d="M0 3.4L4.5 0 9 3.4zM1 4.4v3h2v-2h3v2h2v-3z"/></symbol><symbol id="hunting" viewBox="0 0 7.2 11" xml:space="preserve" xmlns="http://www.w3.org/2000/svg"><style>.bast0{fill:#a86f2a}</style><path class="bast0" d="M2.1 5c-.3.2-.4.6-.4.9l.7 1.6-1 2.9c0 .3.1.6.4.6h.1c.2 0 .4-.1.4-.3v-.1l1-3 .1.2v2.6c0 .3.2.5.5.5s.5-.2.5-.5V8c0-.1 0-.3-.1-.4l-.9-2.5 1.8-1.5c.4-.4-.1-.9-.7-.5L2.1 5z"/><circle class="bast0" cx="1.1" cy="3.8" r="1.1"/><path class="bast0" d="M7.2.2c.1.2 0 .5-.2.6L3.4 3.3c-.2.1-.4 0-.6-.2-.1-.2 0-.5.2-.6L6.6 0c.2-.1.4 0 .6.2z"/></symbol><symbol id="hunting-12" viewBox="0 0 7.2 11" xml:space="preserve" xmlns="http://www.w3.org/2000/svg"><style>.bbst0{fill:#a86f2a}</style><path class="bbst0" d="M2.1 5c-.3.2-.4.6-.4.9l.7 1.6-1 2.9c0 .3.1.6.4.6h.1c.2 0 .4-.1.4-.3v-.1l1-3 .1.2v2.6c0 .3.2.5.5.5s.5-.2.5-.5V8c0-.1 0-.3-.1-.4l-.9-2.5 1.8-1.5c.4-.4-.1-.9-.7-.5L2.1 5z"/><circle class="bbst0" cx="1.1" cy="3.8" r="1.1"/><path class="bbst0" d="M7.2.2c.1.2 0 .5-.2.6L3.4 3.3c-.2.1-.4 0-.6-.2-.1-.2 0-.5.2-.6L6.6 0c.2-.1.4 0 .6.2z"/></symbol><symbol id="lake" viewBox="0 0 11 5.1" xml:space="preserve" xmlns="http://www.w3.org/2000/svg"><style>.bcst0{fill:#2c68b1}.bcst1{fill:#3eb5e9}</style><path class="bcst0" d="M7 4.1H4.1c-.9 0-1.6-.7-1.6-1.6 0-.9.7-1.6 1.6-1.6H7c.9 0 1.6.7 1.6 1.6.1.9-.7 1.6-1.6 1.6z"/><path class="bcst1" d="M5.5 0C2.5 0 0 1.1 0 2.6s2.5 2.6 5.5 2.6S11 4 11 2.6 8.5 0 5.5 0zm2.2 3.6c-.3-.1-.6-.2-.7-.5-.2.4-.7.6-1.1.4-.2-.1-.3-.2-.4-.4-.2.5-.7.6-1.1.4-.2 0-.3-.2-.4-.4-.1.3-.4.5-.7.5-.1 0-.1 0-.1-.1s0-.1.1-.1c.3 0 .6-.3.6-.6 0-.1 0-.1.1-.1s.1 0 .1.1c0 .3.3.6.6.6s.6-.3.6-.6c0-.1 0-.1.1-.1s.1 0 .1.1c0 .3.3.6.6.6s.6-.3.6-.6c0-.1 0-.1.1-.1.2-.1.2 0 .2 0 0 .3.3.6.6.6.1 0 .1 0 .1.1.1.1 0 .2 0 .2zm0-1.5c-.3 0-.6-.2-.7-.4-.2.4-.7.5-1.1.3-.2-.1-.3-.2-.4-.3-.2.4-.7.6-1.1.4-.2-.1-.3-.3-.4-.4-.1.2-.4.4-.7.4-.1 0-.1-.1-.1-.1 0-.1 0-.1.1-.1.3 0 .6-.3.6-.6 0-.1 0-.1.1-.1s.1 0 .1.1c0 .3.3.6.6.6s.6-.3.6-.6c0-.1 0-.1.1-.1s.1 0 .1.1c0 .3.3.6.6.6s.6-.3.6-.6c0-.1 0-.1.1-.1.2-.1.2 0 .2 0 0 .3.3.6.6.6.1 0 .1 0 .1.1.1.1 0 .2 0 .2z"/></symbol><symbol id="lake-12" viewBox="0 0 11 5.1" xml:space="preserve" xmlns="http://www.w3.org/2000/svg"><style>.bdst0{fill:#2c68b1}.bdst1{fill:#3eb5e9}</style><path class="bdst0" d="M7 4.1H4.1c-.9 0-1.6-.7-1.6-1.6 0-.9.7-1.6 1.6-1.6H7c.9 0 1.6.7 1.6 1.6.1.9-.7 1.6-1.6 1.6z"/><path class="bdst1" d="M5.5 0C2.5 0 0 1.1 0 2.6s2.5 2.6 5.5 2.6S11 4 11 2.6 8.5 0 5.5 0zm2.2 3.6c-.3-.1-.6-.2-.7-.5-.2.4-.7.6-1.1.4-.2-.1-.3-.2-.4-.4-.2.5-.7.6-1.1.4-.2 0-.3-.2-.4-.4-.1.3-.4.5-.7.5-.1 0-.1 0-.1-.1s0-.1.1-.1c.3 0 .6-.3.6-.6 0-.1 0-.1.1-.1s.1 0 .1.1c0 .3.3.6.6.6s.6-.3.6-.6c0-.1 0-.1.1-.1s.1 0 .1.1c0 .3.3.6.6.6s.6-.3.6-.6c0-.1 0-.1.1-.1.2-.1.2 0 .2 0 0 .3.3.6.6.6.1 0 .1 0 .1.1.1.1 0 .2 0 .2zm0-1.5c-.3 0-.6-.2-.7-.4-.2.4-.7.5-1.1.3-.2-.1-.3-.2-.4-.3-.2.4-.7.6-1.1.4-.2-.1-.3-.3-.4-.4-.1.2-.4.4-.7.4-.1 0-.1-.1-.1-.1 0-.1 0-.1.1-.1.3 0 .6-.3.6-.6 0-.1 0-.1.1-.1s.1 0 .1.1c0 .3.3.6.6.6s.6-.3.6-.6c0-.1 0-.1.1-.1s.1 0 .1.1c0 .3.3.6.6.6s.6-.3.6-.6c0-.1 0-.1.1-.1.2-.1.2 0 .2 0 0 .3.3.6.6.6.1 0 .1 0 .1.1.1.1 0 .2 0 .2z"/></symbol><symbol id="palm" viewBox="0 0 11 11" xml:space="preserve" xmlns="http://www.w3.org/2000/svg"><style>.best0{fill:#69b42d}.best1{fill:#996813}</style><path class="best0" d="M10.9 4.2c0-.1-1.5-2.3-3.4-2.2.7-.5 1.5-.9 2.4-1.1.2 0 .4-.2.3-.5 0-.2-.2-.3-.3-.3-.1 0-2.6-.5-3.9.8-.2.2-.4.4-.5.7-.2-.3-.3-.5-.5-.7C3.7-.4 1.2.1 1.1.1.9.1.7.3.8.6c0 .2.2.3.3.3.9.2 1.7.5 2.4 1.1h-.1C1.6 2 .1 4.1.1 4.2c-.1.1-.1.4 0 .5.2.1.4.1.5 0 .7-.5 1.6-.8 2.4-.9v.1c-1.3 1.3-.8 3.8-.8 3.9 0 .2.2.3.4.3S3 8 3 7.8c.2-1 .6-1.9 1.3-2.6.3-.3.6-.5.9-.7.7 1.9.8 4 .4 6-.1.2.1.4.3.5H7c.2 0 .4-.2.4-.4 0-1.9-.3-3.8-.9-5.6l.2.2c.7.7 1.1 1.6 1.3 2.6 0 .2.2.3.5.3.2 0 .3-.2.3-.3 0-.1.5-2.6-.8-3.9l-.1-.1c.9.1 1.7.4 2.4.9.2.1.4.1.5 0 .2-.1.3-.4.1-.5z"/><path class="best1" d="M6.6 4.8c0-.2-.1-.3-.3-.4-.3-.2-.5-.2-.8-.2h-.2c-.2.2.2 1.3.3 1.5.1.5.2 1.1.2 1.6.1 1 .1 2.2-.2 3.2-.1.2.1.4.3.5H7c.2 0 .4-.2.4-.4 0-1.2-.1-2.3-.3-3.5-.2-.6-.3-1.2-.5-1.7v-.6z"/></symbol><symbol id="palm-12" viewBox="0 0 11 11" xml:space="preserve" xmlns="http://www.w3.org/2000/svg"><style>.bfst0{fill:#69b42d}.bfst1{fill:#996813}</style><path class="bfst0" d="M10.9 4.2c0-.1-1.5-2.3-3.4-2.2.7-.5 1.5-.9 2.4-1.1.2 0 .4-.2.3-.5 0-.2-.2-.3-.3-.3-.1 0-2.6-.5-3.9.8-.2.2-.4.4-.5.7-.2-.3-.3-.5-.5-.7C3.7-.4 1.2.1 1.1.1.9.1.7.3.8.6c0 .2.2.3.3.3.9.2 1.7.5 2.4 1.1h-.1C1.6 2 .1 4.1.1 4.2c-.1.1-.1.4 0 .5.2.1.4.1.5 0 .7-.5 1.6-.8 2.4-.9v.1c-1.3 1.3-.8 3.8-.8 3.9 0 .2.2.3.4.3S3 8 3 7.8c.2-1 .6-1.9 1.3-2.6.3-.3.6-.5.9-.7.7 1.9.8 4 .4 6-.1.2.1.4.3.5H7c.2 0 .4-.2.4-.4 0-1.9-.3-3.8-.9-5.6l.2.2c.7.7 1.1 1.6 1.3 2.6 0 .2.2.3.5.3.2 0 .3-.2.3-.3 0-.1.5-2.6-.8-3.9l-.1-.1c.9.1 1.7.4 2.4.9.2.1.4.1.5 0 .2-.1.3-.4.1-.5z"/><path class="bfst1" d="M6.6 4.8c0-.2-.1-.3-.3-.4-.3-.2-.5-.2-.8-.2h-.2c-.2.2.2 1.3.3 1.5.1.5.2 1.1.2 1.6.1 1 .1 2.2-.2 3.2-.1.2.1.4.3.5H7c.2 0 .4-.2.4-.4 0-1.2-.1-2.3-.3-3.5-.2-.6-.3-1.2-.5-1.7v-.6z"/></symbol><symbol viewBox="0 0 100 100" id="path" xmlns="http://www.w3.org/2000/svg"><path fill="none" stroke="#80417B" stroke-linecap="round" stroke-dasharray="3,5" d="M7.8 89.4c-11-50.5 39.6-.1 50-26.2C64.1 47.3 44 36.3 30.7 37.7c-4.8.5-8.5 4.2-13 5.2-2.1.5-4.8.2-6.3-1.3-1.6-1.6-1.7-4-2.4-6-4.9-14.8 33.3.1 36.4.3 10.9.6 36.7 1.9 43.3-9.6C94.2 16.6 85 12.7 98 6.2"/></symbol><symbol viewBox="0 0 100 100" id="path-12" xmlns="http://www.w3.org/2000/svg"><path fill="none" stroke="#80417B" stroke-linecap="round" stroke-dasharray="3,5" d="M7.8 89.4c-11-50.5 39.6-.1 50-26.2C64.1 47.3 44 36.3 30.7 37.7c-4.8.5-8.5 4.2-13 5.2-2.1.5-4.8.2-6.3-1.3-1.6-1.6-1.7-4-2.4-6-4.9-14.8 33.3.1 36.4.3 10.9.6 36.7 1.9 43.3-9.6C94.2 16.6 85 12.7 98 6.2"/></symbol><symbol id="plant" viewBox="0 0 10.6 10.9" xml:space="preserve" xmlns="http://www.w3.org/2000/svg"><style>.bist0{fill:#207040}</style><path class="bist0" d="M10.4 3c-1-.2-2-.2-3-.1 1.1 2.8.3 6-1.9 8 3.6-.4 5.7-3.5 4.9-7.9z"/><path class="bist0" d="M3.4 0C-1 2.9-1.1 7.5 2.9 10.6V4c0-.3.2-.5.5-.5s.5.2.5.5v6.7C8 7.6 7.8 2.9 3.4 0z"/></symbol><symbol id="plant-12" viewBox="0 0 10.6 10.9" xml:space="preserve" xmlns="http://www.w3.org/2000/svg"><style>.bjst0{fill:#207040}</style><path class="bjst0" d="M10.4 3c-1-.2-2-.2-3-.1 1.1 2.8.3 6-1.9 8 3.6-.4 5.7-3.5 4.9-7.9z"/><path class="bjst0" d="M3.4 0C-1 2.9-1.1 7.5 2.9 10.6V4c0-.3.2-.5.5-.5s.5.2.5.5v6.7C8 7.6 7.8 2.9 3.4 0z"/></symbol><symbol id="river" viewBox="0 0 10.6 11" xml:space="preserve" xmlns="http://www.w3.org/2000/svg"><style>.bkst0{fill:#92cc66}.bkst1{fill:#0070e7}</style><path class="bkst0" d="M9.6 4.4v.8c0 .9 0 2.1-1.4 3.4C6.6 10 5.1 9.9 3.9 9.9h-.5c-.5 0-1.4.4-1.8.7l-1.1 1 .9.8 1-.9c.2-.1.5-.3.8-.3h.4c1.3.1 3.4.2 5.5-1.7C11 7.8 11 6 11.1 5v-.7c.1-.4.2-.8.5-1.1l.9-.8-.9-.8-1 .9c-.6.5-.9 1.2-1 1.9z"/><path class="bkst0" d="M7.9 0c-.1.1-.2.1-.2.2-1.2 1.4-2 3-2.2 4.6 0 .4-.1.8-.1 1.2H4.5c-2.3-.2-4.6 1.4-5 1.7-.1.1-.3.2-.4.3l-1.2 1.1.9.8L0 8.8c0-.1.1-.1.2-.2.2-.2 2.2-1.5 4-1.4h.5c1.1.1 1.3 0 1.6-.4l.1-.1c.2-.2.3-.3.3-1 0-.4 0-.7.1-1.1C7 3.3 7.6 2 8.6.9l.1-.1 1.1-1L9-1 7.9 0z"/><path class="bkst1" d="M10-.9L8.9.2l-.2.1c-1 1.2-1.7 2.6-1.9 4 0 .4-.1.8-.1 1.2 0 .7-.1.8-.3.9v.1c-.3.4-.4.5-1.5.4h-.5C2.5 6.8.4 8.3.2 8.4c-.1 0-.2.1-.3.1l-1.2 1.2 1.9 1.9 1.1-1.1c.5-.2 1.3-.7 1.8-.6H4c1.2.1 2.8.2 4.5-1.4C10 7.1 10 5.8 10 4.8v-.9c.1-.7.4-1.4.9-2l1-1L10-.9z"/></symbol><symbol id="river-12" viewBox="0 0 10.6 11" xml:space="preserve" xmlns="http://www.w3.org/2000/svg"><style>.blst0{fill:#92cc66}.blst1{fill:#0070e7}</style><path class="blst0" d="M9.6 4.4v.8c0 .9 0 2.1-1.4 3.4C6.6 10 5.1 9.9 3.9 9.9h-.5c-.5 0-1.4.4-1.8.7l-1.1 1 .9.8 1-.9c.2-.1.5-.3.8-.3h.4c1.3.1 3.4.2 5.5-1.7C11 7.8 11 6 11.1 5v-.7c.1-.4.2-.8.5-1.1l.9-.8-.9-.8-1 .9c-.6.5-.9 1.2-1 1.9z"/><path class="blst0" d="M7.9 0c-.1.1-.2.1-.2.2-1.2 1.4-2 3-2.2 4.6 0 .4-.1.8-.1 1.2H4.5c-2.3-.2-4.6 1.4-5 1.7-.1.1-.3.2-.4.3l-1.2 1.1.9.8L0 8.8c0-.1.1-.1.2-.2.2-.2 2.2-1.5 4-1.4h.5c1.1.1 1.3 0 1.6-.4l.1-.1c.2-.2.3-.3.3-1 0-.4 0-.7.1-1.1C7 3.3 7.6 2 8.6.9l.1-.1 1.1-1L9-1 7.9 0z"/><path class="blst1" d="M10-.9L8.9.2l-.2.1c-1 1.2-1.7 2.6-1.9 4 0 .4-.1.8-.1 1.2 0 .7-.1.8-.3.9v.1c-.3.4-.4.5-1.5.4h-.5C2.5 6.8.4 8.3.2 8.4c-.1 0-.2.1-.3.1l-1.2 1.2 1.9 1.9 1.1-1.1c.5-.2 1.3-.7 1.8-.6H4c1.2.1 2.8.2 4.5-1.4C10 7.1 10 5.8 10 4.8v-.9c.1-.7.4-1.4.9-2l1-1L10-.9z"/></symbol><symbol id="salt-lick" viewBox="0 0 11 11" xml:space="preserve" xmlns="http://www.w3.org/2000/svg"><style>.bmst0{fill:#442702}</style><path class="bmst0" d="M4 3.3c.1.4.4.7.8.7.3 0 .5-.4.4-.8-.1-.4-.4-.7-.8-.7-.4.1-.5.5-.4.8zM6.3 4.1c.3-.1.7-.4.7-.8.1-.3 0-.7-.4-.8-.4 0-.7.3-.8.7-.1.4.1.8.5.9-.1 0 0 0 0 0zM3.7 4.6c0-.4-.4-.7-.8-.7-.4.2-.5.6-.4 1 0 .4.4.7.8.7.4-.2.5-.6.4-1zM8.1 3.9c-.4 0-.8.3-.8.7-.2.4 0 .8.4 1 .4 0 .8-.3.8-.7.2-.4 0-.8-.4-1zM7.8 6.8c-.3-.1-.5-.3-.8-.4.1-.8-.5-1.6-1.3-1.7h-.2c-.8 0-1.5.7-1.5 1.5v.2c-.3.1-.6.2-.8.4-.4.3-.5.9-.2 1.3s.9.5 1.4.2c.7-.4 1.5-.4 2.2 0 .4.4 1 .3 1.4-.1.3-.4.3-.9-.1-1.3l-.1-.1z"/><path d="M5.5 0C2.5 0 0 2.5 0 5.5S2.5 11 5.5 11 11 8.5 11 5.5 8.5 0 5.5 0zm0 10.2C2.9 10.2.8 8.1.8 5.5S2.9.8 5.5.8s4.7 2.1 4.7 4.7-2.1 4.7-4.7 4.7z"/></symbol><symbol id="salt-lick-12" viewBox="0 0 11 11" xml:space="preserve" xmlns="http://www.w3.org/2000/svg"><style>.bnst0{fill:#442702}</style><path class="bnst0" d="M4 3.3c.1.4.4.7.8.7.3 0 .5-.4.4-.8-.1-.4-.4-.7-.8-.7-.4.1-.5.5-.4.8zM6.3 4.1c.3-.1.7-.4.7-.8.1-.3 0-.7-.4-.8-.4 0-.7.3-.8.7-.1.4.1.8.5.9-.1 0 0 0 0 0zM3.7 4.6c0-.4-.4-.7-.8-.7-.4.2-.5.6-.4 1 0 .4.4.7.8.7.4-.2.5-.6.4-1zM8.1 3.9c-.4 0-.8.3-.8.7-.2.4 0 .8.4 1 .4 0 .8-.3.8-.7.2-.4 0-.8-.4-1zM7.8 6.8c-.3-.1-.5-.3-.8-.4.1-.8-.5-1.6-1.3-1.7h-.2c-.8 0-1.5.7-1.5 1.5v.2c-.3.1-.6.2-.8.4-.4.3-.5.9-.2 1.3s.9.5 1.4.2c.7-.4 1.5-.4 2.2 0 .4.4 1 .3 1.4-.1.3-.4.3-.9-.1-1.3l-.1-.1z"/><path d="M5.5 0C2.5 0 0 2.5 0 5.5S2.5 11 5.5 11 11 8.5 11 5.5 8.5 0 5.5 0zm0 10.2C2.9 10.2.8 8.1.8 5.5S2.9.8 5.5.8s4.7 2.1 4.7 4.7-2.1 4.7-4.7 4.7z"/></symbol><symbol id="special-site" viewBox="0 0 10.6 11" xml:space="preserve" xmlns="http://www.w3.org/2000/svg"><style>.bost0{fill:#f277ba}</style><path class="bost0" d="M10.6 3.8c-.1-.2-.3-.3-.5-.3H7L5.8.3c0-.3-.2-.5-.5-.5s-.5.2-.5.5L3.6 3.4H.5c-.3.1-.5.3-.5.6 0 .1.1.3.2.4l2.5 2.2-1.2 3.8c-.1.3.1.5.3.6.1 0 .3 0 .4-.1l3.2-2.2 3.2 2.2c.1.2.4.1.6-.1.1-.1.1-.3.1-.4L8 6.5l2.5-2.2c.1-.1.2-.3.1-.5zM7.2 5.7l-.6.5.2.7.6 1.9L6 7.9l-.7-.6-.6.5-1.5 1 .6-1.9.2-.7-.5-.5-1.1-1h2l.3-.7.7-1.7L6 4l.3.7h2.1l-1.2 1z"/></symbol><symbol id="special-site-12" viewBox="0 0 10.6 11" xml:space="preserve" xmlns="http://www.w3.org/2000/svg"><style>.bpst0{fill:#f277ba}</style><path class="bpst0" d="M10.6 3.8c-.1-.2-.3-.3-.5-.3H7L5.8.3c0-.3-.2-.5-.5-.5s-.5.2-.5.5L3.6 3.4H.5c-.3.1-.5.3-.5.6 0 .1.1.3.2.4l2.5 2.2-1.2 3.8c-.1.3.1.5.3.6.1 0 .3 0 .4-.1l3.2-2.2 3.2 2.2c.1.2.4.1.6-.1.1-.1.1-.3.1-.4L8 6.5l2.5-2.2c.1-.1.2-.3.1-.5zM7.2 5.7l-.6.5.2.7.6 1.9L6 7.9l-.7-.6-.6.5-1.5 1 .6-1.9.2-.7-.5-.5-1.1-1h2l.3-.7.7-1.7L6 4l.3.7h2.1l-1.2 1z"/></symbol><symbol id="stream" viewBox="0 0 10.6 11" xml:space="preserve" xmlns="http://www.w3.org/2000/svg"><style>.bqst0,.bqst1{fill:none;stroke:#60ef50;stroke-width:1.2795;stroke-miterlimit:10}.bqst1{stroke:#0070e7;stroke-width:1.0663}</style><path class="bqst0" d="M9.9-.1c0 .2-.2.4-.3.5-.4.1-.7.2-1.1.2-.2 0-.5-.1-.8 0-.3.1-.4.4-.4.7-.1.5.1 1.1.4 1.6s.5 1 .7 1.5 0 1.2-.5 1.5c-.5.3-1 .3-1.5.3-.8-.1-1.5-.2-2.3-.1-.4 0-.7.1-1.1.4-.3.2-.6.6-.6 1.1 0 .4 0 .9.2 1.3.1.3.3.6.2.9-.1.3-.5.4-.8.5-.3 0-.7-.1-1-.1C.6 10 .2 10-.2 10"/><path class="bqst1" d="M9.9-.3c0 .3-.2.6-.5.7s-.6.2-1 .1c-.2 0-.7-.1-.9 0-.1.2-.2.6-.2.8-.1.5.1 1.1.4 1.6s.5 1 .7 1.5c.1.5 0 1.2-.5 1.5-.5.3-1 .3-1.5.3-.8-.1-1.5-.2-2.3-.1-.4 0-.7.1-1.1.4-.3.2-.6.6-.6 1.1 0 .4 0 .9.2 1.3.1.3.3.6.2.9-.1.3-.5.4-.8.5s-.7-.1-1-.1C.6 10 .2 10-.2 10"/></symbol><symbol id="stream-12" viewBox="0 0 10.6 11" xml:space="preserve" xmlns="http://www.w3.org/2000/svg"><style>.brst0,.brst1{fill:none;stroke:#60ef50;stroke-width:1.2795;stroke-miterlimit:10}.brst1{stroke:#0070e7;stroke-width:1.0663}</style><path class="brst0" d="M9.9-.1c0 .2-.2.4-.3.5-.4.1-.7.2-1.1.2-.2 0-.5-.1-.8 0-.3.1-.4.4-.4.7-.1.5.1 1.1.4 1.6s.5 1 .7 1.5 0 1.2-.5 1.5c-.5.3-1 .3-1.5.3-.8-.1-1.5-.2-2.3-.1-.4 0-.7.1-1.1.4-.3.2-.6.6-.6 1.1 0 .4 0 .9.2 1.3.1.3.3.6.2.9-.1.3-.5.4-.8.5-.3 0-.7-.1-1-.1C.6 10 .2 10-.2 10"/><path class="brst1" d="M9.9-.3c0 .3-.2.6-.5.7s-.6.2-1 .1c-.2 0-.7-.1-.9 0-.1.2-.2.6-.2.8-.1.5.1 1.1.4 1.6s.5 1 .7 1.5c.1.5 0 1.2-.5 1.5-.5.3-1 .3-1.5.3-.8-.1-1.5-.2-2.3-.1-.4 0-.7.1-1.1.4-.3.2-.6.6-.6 1.1 0 .4 0 .9.2 1.3.1.3.3.6.2.9-.1.3-.5.4-.8.5s-.7-.1-1-.1C.6 10 .2 10-.2 10"/></symbol><symbol id="swidden" viewBox="0 0 7.9 9" xml:space="preserve" xmlns="http://www.w3.org/2000/svg"><style>.bsst0{fill:#7ab929}</style><path class="bsst0" d="M0 7.9h7.9V9H0z"/><path class="bsst0" d="M3.4 5.5h1.1V9H3.4z"/><path class="bsst0" d="M3.4 6.7c2.4 0 4.4-2 4.4-4.4-2.4 0-4.4 1.9-4.4 4.4z"/><path class="bsst0" d="M4.4 6.7C2 6.6 0 4.7.1 2.2c2.4.1 4.3 2 4.3 4.5zM3.9 3.4C3 2.4 3 .9 3.9 0c1 .9 1 2.4 0 3.4z"/></symbol><symbol id="swidden-12" viewBox="0 0 7.9 9" xml:space="preserve" xmlns="http://www.w3.org/2000/svg"><style>.btst0{fill:#7ab929}</style><path class="btst0" d="M0 7.9h7.9V9H0z"/><path class="btst0" d="M3.4 5.5h1.1V9H3.4z"/><path class="btst0" d="M3.4 6.7c2.4 0 4.4-2 4.4-4.4-2.4 0-4.4 1.9-4.4 4.4z"/><path class="btst0" d="M4.4 6.7C2 6.6 0 4.7.1 2.2c2.4.1 4.3 2 4.3 4.5zM3.9 3.4C3 2.4 3 .9 3.9 0c1 .9 1 2.4 0 3.4z"/></symbol><symbol viewBox="0 0 8.5 11" id="threat" xmlns="http://www.w3.org/2000/svg"><path d="M5.37 8.54l3.12 1.56-.44.93-3.8-1.92-3.8 1.92-.45-.89 3.13-1.6L.01 7.03l.45-.89 3.79 1.89 3.8-1.9.44.9zm1.89-5.31v.29l-1 1v1l-2 1-2-1v-1l-1-1v-.49a2.91 2.91 0 012.79-3h.2a3.1 3.1 0 013 3.19zm-3.8-.5a.79.79 0 10-.79.79.79.79 0 00.79-.79zm.29 1.8h-.5v1h.5zm1.51 0h-.51v1h.5zm1.36-1.8a.79.79 0 10-.79.79.79.79 0 00.79-.79z"/></symbol><symbol viewBox="0 0 8.5 11" id="threat-12" xmlns="http://www.w3.org/2000/svg"><path d="M5.37 8.54l3.12 1.56-.44.93-3.8-1.92-3.8 1.92-.45-.89 3.13-1.6L.01 7.03l.45-.89 3.79 1.89 3.8-1.9.44.9zm1.89-5.31v.29l-1 1v1l-2 1-2-1v-1l-1-1v-.49a2.91 2.91 0 012.79-3h.2a3.1 3.1 0 013 3.19zm-3.8-.5a.79.79 0 10-.79.79.79.79 0 00.79-.79zm.29 1.8h-.5v1h.5zm1.51 0h-.51v1h.5zm1.36-1.8a.79.79 0 10-.79.79.79.79 0 00.79-.79z"/></symbol><symbol id="tree" viewBox="0 0 11 10.9" xml:space="preserve" xmlns="http://www.w3.org/2000/svg"><style>.bwst0{fill:#0a891f}</style><path class="bwst0" d="M9.5 6.6c.4-.3.6-.7.6-1.2v-.2c.9-.4 1.3-1.4 1-2.3-.3-.7-1-1.1-1.7-1.1-.4.2-.7.2-.9.3 0-.7-.6-1.2-1.2-1.2l-.2.1C7 .4 6.4-.1 5.8-.1c-.5.1-.9.4-1.1.8-.2-.1-.4-.2-.6-.2-.4 0-.8.2-1 .6-.2-.1-.4-.1-.5-.2-.8 0-1.5.7-1.5 1.5 0 .2 0 .4.1.6C.4 3.2-.1 4 0 4.8c.1.6.6 1 1.1 1.2.2.8 1.1 1.2 1.9 1 .3-.1.5-.2.7-.4h.1c.3 0 .6-.1.9-.3v3.8l-1.6 1h5l-1.6-1v-4h.2c.2 0 .4 0 .5-.1 0 .3.4.7.8.8.5.2 1.1.1 1.5-.2z"/></symbol><symbol id="tree-12" viewBox="0 0 11 10.9" xml:space="preserve" xmlns="http://www.w3.org/2000/svg"><style>.bxst0{fill:#0a891f}</style><path class="bxst0" d="M9.5 6.6c.4-.3.6-.7.6-1.2v-.2c.9-.4 1.3-1.4 1-2.3-.3-.7-1-1.1-1.7-1.1-.4.2-.7.2-.9.3 0-.7-.6-1.2-1.2-1.2l-.2.1C7 .4 6.4-.1 5.8-.1c-.5.1-.9.4-1.1.8-.2-.1-.4-.2-.6-.2-.4 0-.8.2-1 .6-.2-.1-.4-.1-.5-.2-.8 0-1.5.7-1.5 1.5 0 .2 0 .4.1.6C.4 3.2-.1 4 0 4.8c.1.6.6 1 1.1 1.2.2.8 1.1 1.2 1.9 1 .3-.1.5-.2.7-.4h.1c.3 0 .6-.1.9-.3v3.8l-1.6 1h5l-1.6-1v-4h.2c.2 0 .4 0 .5-.1 0 .3.4.7.8.8.5.2 1.1.1 1.5-.2z"/></symbol><symbol id="waterfall" viewBox="0 0 9.8 8.4" xml:space="preserve" xmlns="http://www.w3.org/2000/svg"><style>.byst0{fill:none;stroke:#2057f2;stroke-miterlimit:10}</style><path class="byst0" d="M.4.5h6c1.1.1 1.9.9 2 2v3"/><path class="byst0" d="M2.4 5.5v-3c0-1 0-2-1-2M6.4 5.5v-3c0-1 0-2-1-2M4.4 5.5v-3c0-1 0-2-1-2M.4 8.1l.9-1.2c.2-.3.6-.4 1-.2.1.1.2.1.2.2l.3.4c.2.3.6.4 1 .2.1 0 .1-.1.2-.2l.3-.4c.2-.3.6-.4 1-.2.1.1.2.1.2.2l.3.4c.2.3.7.4 1 .2.1 0 .2-.1.2-.2l.3-.3c.2-.3.7-.4 1-.2.1 0 .2.1.2.2l.9 1.2"/></symbol><symbol id="waterfall-12" viewBox="0 0 9.8 8.4" xml:space="preserve" xmlns="http://www.w3.org/2000/svg"><style>.bzst0{fill:none;stroke:#2057f2;stroke-miterlimit:10}</style><path class="bzst0" d="M.4.5h6c1.1.1 1.9.9 2 2v3"/><path class="bzst0" d="M2.4 5.5v-3c0-1 0-2-1-2M6.4 5.5v-3c0-1 0-2-1-2M4.4 5.5v-3c0-1 0-2-1-2M.4 8.1l.9-1.2c.2-.3.6-.4 1-.2.1.1.2.1.2.2l.3.4c.2.3.6.4 1 .2.1 0 .1-.1.2-.2l.3-.4c.2-.3.6-.4 1-.2.1.1.2.1.2.2l.3.4c.2.3.7.4 1 .2.1 0 .2-.1.2-.2l.3-.3c.2-.3.7-.4 1-.2.1 0 .2.1.2.2l.9 1.2"/></symbol></svg>